<?xml version="1.0" encoding="utf-8"?>
<!-- Generator: Adobe Illustrator 18.0.0, SVG Export Plug-In . SVG Version: 6.00 Build 0)  -->
<!DOCTYPE svg PUBLIC "-//W3C//DTD SVG 1.0//EN" "http://www.w3.org/TR/2001/REC-SVG-20010904/DTD/svg10.dtd" [
	<!ENTITY ns_flows "http://ns.adobe.com/Flows/1.0/">
	<!ENTITY ns_extend "http://ns.adobe.com/Extensibility/1.0/">
	<!ENTITY ns_ai "http://ns.adobe.com/AdobeIllustrator/10.0/">
	<!ENTITY ns_graphs "http://ns.adobe.com/Graphs/1.0/">
]>
<svg version="1.0" id="Ebene_1" xmlns:x="&ns_extend;" xmlns:i="&ns_ai;" xmlns:graph="&ns_graphs;"
	 xmlns="http://www.w3.org/2000/svg" xmlns:xlink="http://www.w3.org/1999/xlink" xmlns:a="http://ns.adobe.com/AdobeSVGViewerExtensions/3.0/"
	 x="0px" y="0px" width="36.988px" height="63.426px" viewBox="0 0 36.988 63.426" enable-background="new 0 0 36.988 63.426"
	 xml:space="preserve">
<path d="M36.988,31.713c0,0.551-0.212,1.039-0.636,1.462L6.737,62.79c-0.424,0.424-0.912,0.636-1.462,0.636
	s-1.038-0.212-1.461-0.636l-3.178-3.177C0.212,59.189,0,58.703,0,58.151c0-0.55,0.212-1.038,0.636-1.462l24.977-24.977L0.636,6.736
	C0.212,6.313,0,5.825,0,5.275s0.212-1.038,0.636-1.462l3.178-3.178C4.237,0.212,4.724,0,5.275,0s1.038,0.212,1.462,0.635
	l29.616,29.617C36.776,30.676,36.988,31.162,36.988,31.713z"/>
</svg>
