<?xml version="1.0" encoding="utf-8"?>
<!-- Generator: Adobe Illustrator 18.0.0, SVG Export Plug-In . SVG Version: 6.00 Build 0)  -->
<!DOCTYPE svg PUBLIC "-//W3C//DTD SVG 1.0//EN" "http://www.w3.org/TR/2001/REC-SVG-20010904/DTD/svg10.dtd" [
	<!ENTITY ns_flows "http://ns.adobe.com/Flows/1.0/">
	<!ENTITY ns_extend "http://ns.adobe.com/Extensibility/1.0/">
	<!ENTITY ns_ai "http://ns.adobe.com/AdobeIllustrator/10.0/">
	<!ENTITY ns_graphs "http://ns.adobe.com/Graphs/1.0/">
]>
<svg version="1.0" id="Ebene_1" xmlns:x="&ns_extend;" xmlns:i="&ns_ai;" xmlns:graph="&ns_graphs;"
	 xmlns="http://www.w3.org/2000/svg" xmlns:xlink="http://www.w3.org/1999/xlink" xmlns:a="http://ns.adobe.com/AdobeSVGViewerExtensions/3.0/"
	 x="0px" y="0px" width="105.753px" height="97.619px" viewBox="0 0 105.753 97.619" enable-background="new 0 0 105.753 97.619"
	 xml:space="preserve">
<path d="M105.753,71.18v20.338c0,1.695-0.593,3.136-1.78,4.321c-1.186,1.186-2.628,1.78-4.321,1.78H6.101
	c-1.695,0-3.136-0.593-4.321-1.78C0.593,94.655,0,93.213,0,91.518V71.18c0-1.694,0.593-3.135,1.78-4.321
	c1.185-1.185,2.626-1.78,4.321-1.78h29.553l8.58,8.644c2.456,2.373,5.339,3.559,8.643,3.559c3.305,0,6.185-1.186,8.644-3.559
	l8.643-8.644h29.489c1.694,0,3.135,0.594,4.321,1.78C105.16,68.045,105.753,69.487,105.753,71.18z M85.099,35.019
	c0.719,1.738,0.423,3.22-0.89,4.449L55.737,67.94c-0.763,0.805-1.716,1.207-2.86,1.207c-1.143,0-2.097-0.402-2.859-1.207
	L21.545,39.468c-1.314-1.229-1.612-2.711-0.89-4.449c0.719-1.653,1.97-2.479,3.749-2.479h16.27V4.068
	c0-1.101,0.402-2.054,1.207-2.859C42.686,0.403,43.64,0,44.741,0h16.27c1.101,0,2.054,0.403,2.859,1.208
	c0.805,0.805,1.208,1.759,1.208,2.859V32.54h16.269C83.128,32.54,84.377,33.366,85.099,35.019z M80.142,88.277
	c0.804-0.804,1.207-1.757,1.207-2.86c0-1.101-0.403-2.054-1.207-2.859c-0.805-0.804-1.759-1.207-2.86-1.207
	c-1.102,0-2.055,0.403-2.859,1.207c-0.805,0.805-1.208,1.759-1.208,2.859c0,1.103,0.403,2.056,1.208,2.86
	c0.804,0.805,1.757,1.207,2.859,1.207C78.383,89.484,79.336,89.082,80.142,88.277z M96.411,88.277
	c0.805-0.804,1.208-1.757,1.208-2.86c0-1.101-0.403-2.054-1.208-2.859c-0.805-0.804-1.759-1.207-2.859-1.207
	c-1.103,0-2.056,0.403-2.86,1.207c-0.805,0.805-1.207,1.759-1.207,2.859c0,1.103,0.402,2.056,1.207,2.86
	c0.804,0.805,1.757,1.207,2.86,1.207C94.652,89.484,95.606,89.082,96.411,88.277z"/>
</svg>
