<?xml version="1.0" encoding="utf-8"?>
<!-- Generator: Adobe Illustrator 18.0.0, SVG Export Plug-In . SVG Version: 6.00 Build 0)  -->
<!DOCTYPE svg PUBLIC "-//W3C//DTD SVG 1.0//EN" "http://www.w3.org/TR/2001/REC-SVG-20010904/DTD/svg10.dtd" [
	<!ENTITY ns_flows "http://ns.adobe.com/Flows/1.0/">
	<!ENTITY ns_extend "http://ns.adobe.com/Extensibility/1.0/">
	<!ENTITY ns_ai "http://ns.adobe.com/AdobeIllustrator/10.0/">
	<!ENTITY ns_graphs "http://ns.adobe.com/Graphs/1.0/">
]>
<svg version="1.0" id="Ebene_1" xmlns:x="&ns_extend;" xmlns:i="&ns_ai;" xmlns:graph="&ns_graphs;"
	 xmlns="http://www.w3.org/2000/svg" xmlns:xlink="http://www.w3.org/1999/xlink" xmlns:a="http://ns.adobe.com/AdobeSVGViewerExtensions/3.0/"
	 x="0px" y="0px" width="89.484px" height="89.484px" viewBox="0 0 89.484 89.484" enable-background="new 0 0 89.484 89.484"
	 xml:space="preserve">
<path d="M89.484,70.672c0,1.145-0.213,2.638-0.636,4.481c-0.424,1.843-0.869,3.295-1.335,4.353c-0.89,2.12-3.474,4.365-7.753,6.737
	c-3.983,2.161-7.923,3.242-11.822,3.242c-1.143,0-2.256-0.073-3.337-0.222c-1.08-0.148-2.299-0.414-3.654-0.795
	c-1.357-0.381-2.362-0.688-3.019-0.921c-0.657-0.233-1.833-0.667-3.527-1.303c-1.695-0.635-2.733-1.016-3.114-1.143
	c-4.153-1.483-7.861-3.242-11.122-5.275c-5.424-3.347-11.027-7.913-16.81-13.696S13.007,54.742,9.66,49.318
	c-2.033-3.261-3.792-6.969-5.275-11.122c-0.127-0.381-0.509-1.419-1.143-3.114c-0.636-1.694-1.07-2.87-1.303-3.527
	s-0.54-1.662-0.921-3.019c-0.381-1.355-0.646-2.574-0.795-3.654C0.073,23.801,0,22.689,0,21.545c0-3.898,1.081-7.839,3.242-11.822
	C5.613,5.445,7.858,2.86,9.978,1.971c1.058-0.466,2.509-0.911,4.353-1.335C16.174,0.213,17.668,0,18.812,0
	c0.592,0,1.037,0.064,1.335,0.191c0.762,0.254,1.885,1.864,3.368,4.83c0.466,0.805,1.102,1.949,1.907,3.432
	c0.804,1.484,1.545,2.828,2.224,4.036c0.677,1.207,1.335,2.341,1.97,3.399c0.127,0.17,0.498,0.7,1.112,1.59s1.07,1.643,1.367,2.256
	c0.295,0.615,0.445,1.219,0.445,1.812c0,0.848-0.604,1.906-1.812,3.178c-1.207,1.271-2.521,2.436-3.94,3.495
	c-1.419,1.059-2.733,2.183-3.94,3.368c-1.207,1.186-1.811,2.161-1.811,2.924c0,0.381,0.105,0.857,0.317,1.43
	c0.212,0.572,0.392,1.007,0.54,1.302c0.148,0.298,0.445,0.806,0.89,1.526c0.445,0.721,0.688,1.123,0.731,1.207
	c3.22,5.805,6.906,10.784,11.058,14.936s9.13,7.839,14.936,11.058c0.085,0.043,0.487,0.286,1.207,0.731
	c0.719,0.445,1.228,0.741,1.526,0.89c0.295,0.148,0.73,0.328,1.302,0.54s1.048,0.317,1.43,0.317c0.763,0,1.738-0.604,2.924-1.811
	c1.185-1.207,2.309-2.521,3.368-3.94c1.059-1.419,2.224-2.733,3.495-3.94c1.272-1.208,2.33-1.812,3.178-1.812
	c0.593,0,1.197,0.149,1.812,0.445c0.613,0.297,1.366,0.753,2.256,1.367c0.89,0.614,1.419,0.985,1.59,1.112
	c1.058,0.635,2.192,1.293,3.399,1.97c1.208,0.679,2.552,1.42,4.036,2.224c1.483,0.805,2.626,1.441,3.432,1.907
	c2.966,1.483,4.576,2.606,4.83,3.368C89.42,69.635,89.484,70.08,89.484,70.672z"/>
</svg>
